<svg width="408" height="309" xmlns="http://www.w3.org/2000/svg" xmlns:xlink="http://www.w3.org/1999/xlink" overflow="hidden"><defs><clipPath id="clip0"><rect x="0" y="0" width="408" height="309"/></clipPath><clipPath id="clip1"><rect x="10" y="9" width="386" height="271"/></clipPath><clipPath id="clip2"><rect x="10" y="9" width="386" height="271"/></clipPath><clipPath id="clip3"><rect x="10" y="9" width="386" height="271"/></clipPath><clipPath id="clip4"><rect x="10" y="9" width="386" height="271"/></clipPath><clipPath id="clip5"><rect x="-1" y="-1" width="408" height="310"/></clipPath><clipPath id="clip6"><rect x="-1" y="-1" width="408" height="310"/></clipPath><clipPath id="clip7"><rect x="-1" y="-1" width="408" height="310"/></clipPath><clipPath id="clip8"><rect x="-1" y="-1" width="408" height="310"/></clipPath><clipPath id="clip9"><rect x="-1" y="-1" width="408" height="310"/></clipPath><clipPath id="clip10"><rect x="-1" y="-1" width="408" height="310"/></clipPath><clipPath id="clip11"><rect x="-1" y="-1" width="408" height="310"/></clipPath><clipPath id="clip12"><rect x="-1" y="-1" width="408" height="310"/></clipPath><clipPath id="clip13"><rect x="-1" y="-1" width="408" height="310"/></clipPath></defs><g clip-path="url(#clip0)"><path d="M504.368 61.8 910.055 61.8 910.055 369.803 504.368 369.803Z" fill="#FFFFFF" fill-rule="nonzero" fill-opacity="1" transform="matrix(1.00324 0 0 1 -506 -61.8)"/><g clip-path="url(#clip1)"><path d="M643.418 117.121 674.318 117.121 674.318 341.395 643.418 341.395Z" stroke="#000000" stroke-width="0.747581" stroke-linecap="butt" stroke-linejoin="round" stroke-miterlimit="10" stroke-opacity="1" fill="none" fill-rule="nonzero" transform="matrix(1.00324 0 0 1 -506 -61.8)"/></g><g clip-path="url(#clip2)"><path d="M739.606 116.623 770.506 116.623 770.506 340.897 739.606 340.897Z" fill="#BF9000" fill-rule="nonzero" fill-opacity="1" transform="matrix(1.00324 0 0 1 -506 -61.8)"/></g><g clip-path="url(#clip3)"><path d="M836.294 116.623 866.197 116.623 866.197 340.897 836.294 340.897Z" fill="#C55A11" fill-rule="nonzero" fill-opacity="1" transform="matrix(1.00324 0 0 1 -506 -61.8)"/></g><g clip-path="url(#clip4)"><path d="M548.226 116.623 578.129 116.623 578.129 340.897 548.226 340.897Z" fill="#000000" fill-rule="nonzero" fill-opacity="1" transform="matrix(1.00324 0 0 1 -506 -61.8)"/></g><g clip-path="url(#clip5)"><path d="M514.834 341.395 899.589 341.395" stroke="#D9D9D9" stroke-width="0.747581" stroke-linecap="butt" stroke-linejoin="round" stroke-miterlimit="10" stroke-opacity="1" fill="none" fill-rule="evenodd" transform="matrix(1.00324 0 0 1 -506 -61.8)"/></g><g clip-path="url(#clip6)"><text fill="#000000" fill-opacity="1" font-family="Calibri,Calibri_MSFontService,sans-serif" font-style="normal" font-variant="normal" font-weight="400" font-stretch="normal" font-size="12" text-anchor="start" direction="ltr" writing-mode="lr-tb" unicode-bidi="normal" text-decoration="none" transform="matrix(1 0 0 0.996774 48.318 47)">25%</text></g><g clip-path="url(#clip7)"><text fill="#000000" fill-opacity="1" font-family="Calibri,Calibri_MSFontService,sans-serif" font-style="normal" font-variant="normal" font-weight="400" font-stretch="normal" font-size="12" text-anchor="start" direction="ltr" writing-mode="lr-tb" unicode-bidi="normal" text-decoration="none" transform="matrix(1 0 0 0.996774 144.692 47)">25%</text></g><g clip-path="url(#clip8)"><text fill="#000000" fill-opacity="1" font-family="Calibri,Calibri_MSFontService,sans-serif" font-style="normal" font-variant="normal" font-weight="400" font-stretch="normal" font-size="12" text-anchor="start" direction="ltr" writing-mode="lr-tb" unicode-bidi="normal" text-decoration="none" transform="matrix(1 0 0 0.996774 241.068 47)">25%</text></g><g clip-path="url(#clip9)"><text fill="#000000" fill-opacity="1" font-family="Calibri,Calibri_MSFontService,sans-serif" font-style="normal" font-variant="normal" font-weight="400" font-stretch="normal" font-size="12" text-anchor="start" direction="ltr" writing-mode="lr-tb" unicode-bidi="normal" text-decoration="none" transform="matrix(1 0 0 0.996774 337.442 47)">25%</text></g><g clip-path="url(#clip10)"><text fill="#000000" fill-opacity="1" font-family="Calibri,Calibri_MSFontService,sans-serif" font-style="normal" font-variant="normal" font-weight="400" font-stretch="normal" font-size="12" text-anchor="start" direction="ltr" writing-mode="lr-tb" unicode-bidi="normal" text-decoration="none" transform="matrix(1 0 0 0.996774 44.037 298)">Negra</text></g><g clip-path="url(#clip11)"><text fill="#000000" fill-opacity="1" font-family="Calibri,Calibri_MSFontService,sans-serif" font-style="normal" font-variant="normal" font-weight="400" font-stretch="normal" font-size="12" text-anchor="start" direction="ltr" writing-mode="lr-tb" unicode-bidi="normal" text-decoration="none" transform="matrix(1 0 0 0.996774 138.982 298)">Blanca</text></g><g clip-path="url(#clip12)"><text fill="#000000" fill-opacity="1" font-family="Calibri,Calibri_MSFontService,sans-serif" font-style="normal" font-variant="normal" font-weight="400" font-stretch="normal" font-size="12" text-anchor="start" direction="ltr" writing-mode="lr-tb" unicode-bidi="normal" text-decoration="none" transform="matrix(1 0 0 0.996774 237.342 298)">Parda</text></g><g clip-path="url(#clip13)"><text fill="#000000" fill-opacity="1" font-family="Calibri,Calibri_MSFontService,sans-serif" font-style="normal" font-variant="normal" font-weight="400" font-stretch="normal" font-size="12" text-anchor="start" direction="ltr" writing-mode="lr-tb" unicode-bidi="normal" text-decoration="none" transform="matrix(1 0 0 0.996774 335.723 298)">Roja</text></g><path d="M504.866 62.2984 910.553 62.2984 910.553 370.302 504.866 370.302Z" stroke="#D9D9D9" stroke-width="0.747581" stroke-linecap="butt" stroke-linejoin="round" stroke-miterlimit="10" stroke-opacity="1" fill="none" fill-rule="nonzero" transform="matrix(1.00324 0 0 1 -506 -61.8)"/></g></svg>