<svg width="525" height="530" viewBox="0 0 525 530" fill="none" xmlns="http://www.w3.org/2000/svg">
<path d="M424.257 310.409V221.743C424.257 178.13 407.431 137.123 376.876 106.278C376.492 105.89 376.092 105.522 375.704 105.139V45.7394C375.704 36.658 368.411 29.2949 359.415 29.2949C350.419 29.2949 343.125 36.658 343.125 45.7394V79.9648C291.946 49.8738 229.897 52.2392 181.877 80.1439V45.7394C181.877 36.658 174.583 29.2949 165.587 29.2949C156.592 29.2949 149.297 36.657 149.297 45.7394V104.735C118.51 134.6 100.744 175.972 100.744 221.744V310.411C75.8974 326.781 60.8354 354.501 60.8354 384.995V411.539C60.8354 460.706 100.458 500.706 149.163 500.706H375.839C424.543 500.706 464.166 460.707 464.166 411.539V384.995C464.166 354.497 449.099 326.774 424.257 310.409ZM232.703 417.944C232.703 427.026 225.41 434.389 216.414 434.389C207.418 434.389 200.124 427.026 200.124 417.944V378.589C200.124 369.507 207.418 362.144 216.414 362.144C225.41 362.144 232.703 369.507 232.703 378.589V417.944ZM324.877 417.944C324.877 427.026 317.583 434.389 308.587 434.389C299.592 434.389 292.298 427.026 292.298 417.944V378.589C292.298 369.507 299.592 362.144 308.587 362.144C317.583 362.144 324.877 369.507 324.877 378.589V417.944ZM391.679 297.246C369.303 293.165 139.058 296.198 133.323 297.246V221.744C133.323 221.258 133.344 220.778 133.349 220.295C211.355 228.112 282.34 172.947 295.119 95.2685C316.733 100.947 336.949 112.483 353.84 129.535C378.24 154.168 391.678 186.915 391.678 221.744V297.246H391.679Z" fill="#0A9808"/>
<path d="M84.648 142.635H16.2894C7.2936 142.635 0 149.998 0 159.08C0 198.289 30.0819 230.516 68.1649 233.523C68.1649 217.77 66.595 183.9 84.648 142.635Z" fill="#0A9808"/>
<path d="M508.711 142.635H440.442C457.19 180.99 456.835 211.648 456.835 233.524C494.918 230.517 525 198.289 525 159.081C525 149.998 517.707 142.635 508.711 142.635Z" fill="#0A9808"/>
<path d="M184.158 270.637C196.059 270.637 205.707 260.898 205.707 248.884C205.707 236.869 196.059 227.13 184.158 227.13C172.257 227.13 162.61 236.869 162.61 248.884C162.61 260.898 172.257 270.637 184.158 270.637Z" fill="#0A9808"/>
<path d="M340.841 270.637C352.742 270.637 362.389 260.898 362.389 248.884C362.389 236.869 352.742 227.13 340.841 227.13C328.94 227.13 319.292 236.869 319.292 248.884C319.292 260.898 328.94 270.637 340.841 270.637Z" fill="#0A9808"/>
</svg>
