<svg width="356" height="257" viewBox="0 0 356 257" fill="none" xmlns="http://www.w3.org/2000/svg">
<path fill-rule="evenodd" clip-rule="evenodd" d="M15.3356 1.13547C7.67194 3.66566 3.65083 6.70112 1.70892 11.4214C0.259355 14.9464 -0.24476 51.8298 0.108314 128.624L0.624195 240.684L30.7414 167.639C62.1336 91.501 65.374 85.6228 78.7222 80.5781C82.3922 79.1921 123.678 78.4922 201.808 78.4922H319.371V63.5961C319.371 49.7538 318.965 48.293 313.638 42.9535L307.904 37.207H236.258H164.613L139.133 20.4943C125.118 11.3015 111.334 2.89697 108.5 1.81766C103.369 -0.138478 21.0181 -0.740063 15.3356 1.13547ZM80.9681 100.67C77.1765 103.94 67.3964 125.369 44.8545 179.8C27.854 220.856 14.5275 255.116 15.2415 255.934C15.9554 256.752 78.6712 257.194 154.608 256.917L292.677 256.412L324.901 187.238C353.777 125.249 356.986 117.326 355.795 110.964C354.84 105.864 352.7 102.782 348.198 100.031C342.155 96.3373 337.345 96.1997 214.05 96.1938L86.1701 96.1859L80.9681 100.67Z" fill="black"/>
<path d="M99.4531 163H92.0938L92.1406 157.938H99.4531C101.438 157.938 103.102 157.5 104.445 156.625C105.789 155.734 106.805 154.461 107.492 152.805C108.18 151.133 108.523 149.133 108.523 146.805V145.047C108.523 143.25 108.328 141.664 107.938 140.289C107.547 138.914 106.969 137.758 106.203 136.82C105.453 135.883 104.523 135.172 103.414 134.688C102.305 134.203 101.031 133.961 99.5938 133.961H91.9531V128.875H99.5938C101.875 128.875 103.953 129.258 105.828 130.023C107.719 130.789 109.352 131.891 110.727 133.328C112.117 134.75 113.18 136.453 113.914 138.438C114.664 140.422 115.039 142.641 115.039 145.094V146.805C115.039 149.242 114.664 151.461 113.914 153.461C113.18 155.445 112.117 157.148 110.727 158.57C109.352 159.992 107.711 161.086 105.805 161.852C103.898 162.617 101.781 163 99.4531 163ZM95.7031 128.875V163H89.2578V128.875H95.7031ZM131.445 163.469C129.523 163.469 127.797 163.156 126.266 162.531C124.734 161.906 123.43 161.039 122.352 159.93C121.289 158.805 120.469 157.5 119.891 156.016C119.328 154.516 119.047 152.906 119.047 151.188V150.25C119.047 148.297 119.328 146.523 119.891 144.93C120.453 143.32 121.25 141.938 122.281 140.781C123.312 139.625 124.547 138.734 125.984 138.109C127.422 137.484 129.008 137.172 130.742 137.172C132.539 137.172 134.125 137.477 135.5 138.086C136.875 138.68 138.023 139.523 138.945 140.617C139.867 141.711 140.562 143.023 141.031 144.555C141.5 146.07 141.734 147.75 141.734 149.594V152.195H121.859V147.93H135.641V147.461C135.609 146.477 135.422 145.578 135.078 144.766C134.734 143.938 134.203 143.281 133.484 142.797C132.766 142.297 131.836 142.047 130.695 142.047C129.773 142.047 128.969 142.25 128.281 142.656C127.609 143.047 127.047 143.609 126.594 144.344C126.156 145.062 125.828 145.922 125.609 146.922C125.391 147.922 125.281 149.031 125.281 150.25V151.188C125.281 152.25 125.422 153.234 125.703 154.141C126 155.047 126.43 155.836 126.992 156.508C127.57 157.164 128.258 157.68 129.055 158.055C129.867 158.414 130.789 158.594 131.82 158.594C133.117 158.594 134.289 158.344 135.336 157.844C136.398 157.328 137.32 156.57 138.102 155.57L141.219 158.805C140.688 159.586 139.969 160.336 139.062 161.055C138.172 161.773 137.094 162.359 135.828 162.812C134.562 163.25 133.102 163.469 131.445 163.469ZM159.828 156.062C159.828 155.531 159.688 155.055 159.406 154.633C159.125 154.211 158.594 153.828 157.812 153.484C157.047 153.125 155.922 152.789 154.438 152.477C153.125 152.195 151.914 151.844 150.805 151.422C149.695 151 148.742 150.492 147.945 149.898C147.148 149.289 146.523 148.578 146.07 147.766C145.633 146.938 145.414 145.984 145.414 144.906C145.414 143.859 145.641 142.875 146.094 141.953C146.547 141.016 147.203 140.195 148.062 139.492C148.922 138.773 149.969 138.211 151.203 137.805C152.438 137.383 153.828 137.172 155.375 137.172C157.531 137.172 159.383 137.523 160.93 138.227C162.492 138.93 163.688 139.898 164.516 141.133C165.344 142.352 165.758 143.727 165.758 145.258H159.57C159.57 144.586 159.414 143.977 159.102 143.43C158.805 142.883 158.344 142.445 157.719 142.117C157.094 141.773 156.305 141.602 155.352 141.602C154.492 141.602 153.766 141.742 153.172 142.023C152.594 142.305 152.156 142.672 151.859 143.125C151.562 143.578 151.414 144.078 151.414 144.625C151.414 145.031 151.492 145.398 151.648 145.727C151.82 146.039 152.094 146.328 152.469 146.594C152.844 146.859 153.352 147.102 153.992 147.32C154.648 147.539 155.453 147.75 156.406 147.953C158.297 148.328 159.945 148.828 161.352 149.453C162.773 150.062 163.883 150.875 164.68 151.891C165.477 152.906 165.875 154.203 165.875 155.781C165.875 156.906 165.633 157.938 165.148 158.875C164.664 159.797 163.961 160.602 163.039 161.289C162.117 161.977 161.016 162.516 159.734 162.906C158.453 163.281 157.008 163.469 155.398 163.469C153.07 163.469 151.102 163.055 149.492 162.227C147.883 161.383 146.664 160.32 145.836 159.039C145.008 157.742 144.594 156.398 144.594 155.008H150.523C150.57 155.992 150.836 156.781 151.32 157.375C151.805 157.969 152.414 158.398 153.148 158.664C153.898 158.914 154.688 159.039 155.516 159.039C156.453 159.039 157.242 158.914 157.883 158.664C158.523 158.398 159.008 158.047 159.336 157.609C159.664 157.156 159.828 156.641 159.828 156.062ZM180.992 158.594C181.867 158.594 182.648 158.422 183.336 158.078C184.023 157.734 184.57 157.25 184.977 156.625C185.398 156 185.625 155.273 185.656 154.445H191.492C191.461 156.164 190.977 157.703 190.039 159.062C189.102 160.422 187.852 161.5 186.289 162.297C184.742 163.078 183.008 163.469 181.086 163.469C179.133 163.469 177.43 163.141 175.977 162.484C174.523 161.828 173.312 160.914 172.344 159.742C171.391 158.57 170.672 157.211 170.188 155.664C169.719 154.117 169.484 152.461 169.484 150.695V149.945C169.484 148.18 169.719 146.523 170.188 144.977C170.672 143.43 171.391 142.07 172.344 140.898C173.312 139.727 174.523 138.812 175.977 138.156C177.43 137.5 179.125 137.172 181.062 137.172C183.109 137.172 184.906 137.57 186.453 138.367C188.016 139.164 189.234 140.289 190.109 141.742C191 143.195 191.461 144.906 191.492 146.875H185.656C185.625 145.969 185.422 145.156 185.047 144.438C184.672 143.719 184.141 143.141 183.453 142.703C182.766 142.266 181.93 142.047 180.945 142.047C179.898 142.047 179.023 142.266 178.32 142.703C177.633 143.141 177.094 143.742 176.703 144.508C176.328 145.258 176.062 146.102 175.906 147.039C175.766 147.961 175.695 148.93 175.695 149.945V150.695C175.695 151.727 175.766 152.711 175.906 153.648C176.062 154.586 176.328 155.43 176.703 156.18C177.094 156.914 177.633 157.5 178.32 157.938C179.023 158.375 179.914 158.594 180.992 158.594ZM209.586 157.609V145.914C209.586 145.055 209.438 144.312 209.141 143.688C208.844 143.062 208.391 142.578 207.781 142.234C207.172 141.891 206.398 141.719 205.461 141.719C204.633 141.719 203.906 141.859 203.281 142.141C202.672 142.422 202.203 142.82 201.875 143.336C201.547 143.836 201.383 144.414 201.383 145.07H195.172C195.172 144.023 195.422 143.031 195.922 142.094C196.422 141.141 197.133 140.297 198.055 139.562C198.992 138.812 200.109 138.227 201.406 137.805C202.719 137.383 204.188 137.172 205.812 137.172C207.734 137.172 209.445 137.5 210.945 138.156C212.461 138.797 213.648 139.766 214.508 141.062C215.383 142.359 215.82 143.992 215.82 145.961V157.023C215.82 158.289 215.898 159.375 216.055 160.281C216.227 161.172 216.477 161.945 216.805 162.602V163H210.5C210.203 162.359 209.977 161.547 209.82 160.562C209.664 159.562 209.586 158.578 209.586 157.609ZM210.453 147.555L210.5 151.234H206.586C205.617 151.234 204.766 151.336 204.031 151.539C203.297 151.727 202.695 152.008 202.227 152.383C201.758 152.742 201.406 153.18 201.172 153.695C200.938 154.195 200.82 154.766 200.82 155.406C200.82 156.031 200.961 156.594 201.242 157.094C201.539 157.594 201.961 157.992 202.508 158.289C203.07 158.57 203.727 158.711 204.477 158.711C205.57 158.711 206.523 158.492 207.336 158.055C208.148 157.602 208.781 157.055 209.234 156.414C209.688 155.773 209.93 155.164 209.961 154.586L211.742 157.258C211.523 157.898 211.195 158.578 210.758 159.297C210.32 160.016 209.758 160.688 209.07 161.312C208.383 161.938 207.555 162.453 206.586 162.859C205.617 163.266 204.492 163.469 203.211 163.469C201.57 163.469 200.102 163.141 198.805 162.484C197.508 161.828 196.484 160.93 195.734 159.789C194.984 158.648 194.609 157.352 194.609 155.898C194.609 154.555 194.859 153.367 195.359 152.336C195.859 151.305 196.602 150.438 197.586 149.734C198.57 149.016 199.789 148.477 201.242 148.117C202.711 147.742 204.391 147.555 206.281 147.555H210.453ZM227.586 142.82V163H221.398V137.641H227.258L227.586 142.82ZM235.297 137.477L235.203 143.242C234.859 143.18 234.469 143.133 234.031 143.102C233.609 143.07 233.211 143.055 232.836 143.055C231.883 143.055 231.047 143.188 230.328 143.453C229.609 143.703 229.008 144.07 228.523 144.555C228.055 145.039 227.695 145.633 227.445 146.336C227.195 147.023 227.055 147.805 227.023 148.68L225.688 148.516C225.688 146.906 225.852 145.414 226.18 144.039C226.508 142.664 226.984 141.461 227.609 140.43C228.234 139.398 229.016 138.602 229.953 138.039C230.906 137.461 232 137.172 233.234 137.172C233.578 137.172 233.945 137.203 234.336 137.266C234.742 137.312 235.062 137.383 235.297 137.477ZM254.352 137.641H259.977V162.227C259.977 164.523 259.477 166.469 258.477 168.062C257.492 169.672 256.109 170.891 254.328 171.719C252.547 172.562 250.477 172.984 248.117 172.984C247.102 172.984 246 172.844 244.812 172.562C243.641 172.281 242.508 171.836 241.414 171.227C240.336 170.633 239.438 169.859 238.719 168.906L241.508 165.25C242.352 166.234 243.305 166.977 244.367 167.477C245.43 167.992 246.578 168.25 247.812 168.25C249.062 168.25 250.125 168.016 251 167.547C251.891 167.094 252.57 166.422 253.039 165.531C253.523 164.656 253.766 163.578 253.766 162.297V143.43L254.352 137.641ZM237.219 150.625V150.133C237.219 148.195 237.453 146.438 237.922 144.859C238.391 143.266 239.062 141.898 239.938 140.758C240.828 139.617 241.898 138.734 243.148 138.109C244.414 137.484 245.836 137.172 247.414 137.172C249.086 137.172 250.492 137.477 251.633 138.086C252.789 138.695 253.742 139.562 254.492 140.688C255.258 141.812 255.852 143.148 256.273 144.695C256.711 146.227 257.047 147.914 257.281 149.758V151.094C257.062 152.891 256.711 154.539 256.227 156.039C255.758 157.539 255.133 158.852 254.352 159.977C253.57 161.086 252.602 161.945 251.445 162.555C250.289 163.164 248.93 163.469 247.367 163.469C245.805 163.469 244.398 163.148 243.148 162.508C241.898 161.867 240.828 160.969 239.938 159.812C239.062 158.656 238.391 157.297 237.922 155.734C237.453 154.172 237.219 152.469 237.219 150.625ZM243.406 150.133V150.625C243.406 151.719 243.516 152.742 243.734 153.695C243.953 154.648 244.289 155.492 244.742 156.227C245.195 156.945 245.766 157.508 246.453 157.914C247.141 158.32 247.961 158.523 248.914 158.523C250.195 158.523 251.242 158.258 252.055 157.727C252.883 157.18 253.508 156.438 253.93 155.5C254.367 154.547 254.648 153.477 254.773 152.289V148.609C254.695 147.672 254.523 146.805 254.258 146.008C254.008 145.211 253.656 144.523 253.203 143.945C252.75 143.367 252.172 142.914 251.469 142.586C250.766 142.258 249.93 142.094 248.961 142.094C248.023 142.094 247.203 142.305 246.5 142.727C245.797 143.133 245.219 143.703 244.766 144.438C244.312 145.172 243.969 146.023 243.734 146.992C243.516 147.961 243.406 149.008 243.406 150.133ZM279.523 157.609V145.914C279.523 145.055 279.375 144.312 279.078 143.688C278.781 143.062 278.328 142.578 277.719 142.234C277.109 141.891 276.336 141.719 275.398 141.719C274.57 141.719 273.844 141.859 273.219 142.141C272.609 142.422 272.141 142.82 271.812 143.336C271.484 143.836 271.32 144.414 271.32 145.07H265.109C265.109 144.023 265.359 143.031 265.859 142.094C266.359 141.141 267.07 140.297 267.992 139.562C268.93 138.812 270.047 138.227 271.344 137.805C272.656 137.383 274.125 137.172 275.75 137.172C277.672 137.172 279.383 137.5 280.883 138.156C282.398 138.797 283.586 139.766 284.445 141.062C285.32 142.359 285.758 143.992 285.758 145.961V157.023C285.758 158.289 285.836 159.375 285.992 160.281C286.164 161.172 286.414 161.945 286.742 162.602V163H280.438C280.141 162.359 279.914 161.547 279.758 160.562C279.602 159.562 279.523 158.578 279.523 157.609ZM280.391 147.555L280.438 151.234H276.523C275.555 151.234 274.703 151.336 273.969 151.539C273.234 151.727 272.633 152.008 272.164 152.383C271.695 152.742 271.344 153.18 271.109 153.695C270.875 154.195 270.758 154.766 270.758 155.406C270.758 156.031 270.898 156.594 271.18 157.094C271.477 157.594 271.898 157.992 272.445 158.289C273.008 158.57 273.664 158.711 274.414 158.711C275.508 158.711 276.461 158.492 277.273 158.055C278.086 157.602 278.719 157.055 279.172 156.414C279.625 155.773 279.867 155.164 279.898 154.586L281.68 157.258C281.461 157.898 281.133 158.578 280.695 159.297C280.258 160.016 279.695 160.688 279.008 161.312C278.32 161.938 277.492 162.453 276.523 162.859C275.555 163.266 274.43 163.469 273.148 163.469C271.508 163.469 270.039 163.141 268.742 162.484C267.445 161.828 266.422 160.93 265.672 159.789C264.922 158.648 264.547 157.352 264.547 155.898C264.547 154.555 264.797 153.367 265.297 152.336C265.797 151.305 266.539 150.438 267.523 149.734C268.508 149.016 269.727 148.477 271.18 148.117C272.648 147.742 274.328 147.555 276.219 147.555H280.391ZM297.523 142.82V163H291.336V137.641H297.195L297.523 142.82ZM305.234 137.477L305.141 143.242C304.797 143.18 304.406 143.133 303.969 143.102C303.547 143.07 303.148 143.055 302.773 143.055C301.82 143.055 300.984 143.188 300.266 143.453C299.547 143.703 298.945 144.07 298.461 144.555C297.992 145.039 297.633 145.633 297.383 146.336C297.133 147.023 296.992 147.805 296.961 148.68L295.625 148.516C295.625 146.906 295.789 145.414 296.117 144.039C296.445 142.664 296.922 141.461 297.547 140.43C298.172 139.398 298.953 138.602 299.891 138.039C300.844 137.461 301.938 137.172 303.172 137.172C303.516 137.172 303.883 137.203 304.273 137.266C304.68 137.312 305 137.383 305.234 137.477ZM126.664 213.609V201.914C126.664 201.055 126.516 200.312 126.219 199.688C125.922 199.062 125.469 198.578 124.859 198.234C124.25 197.891 123.477 197.719 122.539 197.719C121.711 197.719 120.984 197.859 120.359 198.141C119.75 198.422 119.281 198.82 118.953 199.336C118.625 199.836 118.461 200.414 118.461 201.07H112.25C112.25 200.023 112.5 199.031 113 198.094C113.5 197.141 114.211 196.297 115.133 195.562C116.07 194.812 117.188 194.227 118.484 193.805C119.797 193.383 121.266 193.172 122.891 193.172C124.812 193.172 126.523 193.5 128.023 194.156C129.539 194.797 130.727 195.766 131.586 197.062C132.461 198.359 132.898 199.992 132.898 201.961V213.023C132.898 214.289 132.977 215.375 133.133 216.281C133.305 217.172 133.555 217.945 133.883 218.602V219H127.578C127.281 218.359 127.055 217.547 126.898 216.562C126.742 215.562 126.664 214.578 126.664 213.609ZM127.531 203.555L127.578 207.234H123.664C122.695 207.234 121.844 207.336 121.109 207.539C120.375 207.727 119.773 208.008 119.305 208.383C118.836 208.742 118.484 209.18 118.25 209.695C118.016 210.195 117.898 210.766 117.898 211.406C117.898 212.031 118.039 212.594 118.32 213.094C118.617 213.594 119.039 213.992 119.586 214.289C120.148 214.57 120.805 214.711 121.555 214.711C122.648 214.711 123.602 214.492 124.414 214.055C125.227 213.602 125.859 213.055 126.312 212.414C126.766 211.773 127.008 211.164 127.039 210.586L128.82 213.258C128.602 213.898 128.273 214.578 127.836 215.297C127.398 216.016 126.836 216.688 126.148 217.312C125.461 217.938 124.633 218.453 123.664 218.859C122.695 219.266 121.57 219.469 120.289 219.469C118.648 219.469 117.18 219.141 115.883 218.484C114.586 217.828 113.562 216.93 112.812 215.789C112.062 214.648 111.688 213.352 111.688 211.898C111.688 210.555 111.938 209.367 112.438 208.336C112.938 207.305 113.68 206.438 114.664 205.734C115.648 205.016 116.867 204.477 118.32 204.117C119.789 203.742 121.469 203.555 123.359 203.555H127.531ZM144.664 198.82V219H138.477V193.641H144.336L144.664 198.82ZM152.375 193.477L152.281 199.242C151.938 199.18 151.547 199.133 151.109 199.102C150.688 199.07 150.289 199.055 149.914 199.055C148.961 199.055 148.125 199.188 147.406 199.453C146.688 199.703 146.086 200.07 145.602 200.555C145.133 201.039 144.773 201.633 144.523 202.336C144.273 203.023 144.133 203.805 144.102 204.68L142.766 204.516C142.766 202.906 142.93 201.414 143.258 200.039C143.586 198.664 144.062 197.461 144.688 196.43C145.312 195.398 146.094 194.602 147.031 194.039C147.984 193.461 149.078 193.172 150.312 193.172C150.656 193.172 151.023 193.203 151.414 193.266C151.82 193.312 152.141 193.383 152.375 193.477ZM165.711 214.594C166.586 214.594 167.367 214.422 168.055 214.078C168.742 213.734 169.289 213.25 169.695 212.625C170.117 212 170.344 211.273 170.375 210.445H176.211C176.18 212.164 175.695 213.703 174.758 215.062C173.82 216.422 172.57 217.5 171.008 218.297C169.461 219.078 167.727 219.469 165.805 219.469C163.852 219.469 162.148 219.141 160.695 218.484C159.242 217.828 158.031 216.914 157.062 215.742C156.109 214.57 155.391 213.211 154.906 211.664C154.438 210.117 154.203 208.461 154.203 206.695V205.945C154.203 204.18 154.438 202.523 154.906 200.977C155.391 199.43 156.109 198.07 157.062 196.898C158.031 195.727 159.242 194.812 160.695 194.156C162.148 193.5 163.844 193.172 165.781 193.172C167.828 193.172 169.625 193.57 171.172 194.367C172.734 195.164 173.953 196.289 174.828 197.742C175.719 199.195 176.18 200.906 176.211 202.875H170.375C170.344 201.969 170.141 201.156 169.766 200.438C169.391 199.719 168.859 199.141 168.172 198.703C167.484 198.266 166.648 198.047 165.664 198.047C164.617 198.047 163.742 198.266 163.039 198.703C162.352 199.141 161.812 199.742 161.422 200.508C161.047 201.258 160.781 202.102 160.625 203.039C160.484 203.961 160.414 204.93 160.414 205.945V206.695C160.414 207.727 160.484 208.711 160.625 209.648C160.781 210.586 161.047 211.43 161.422 212.18C161.812 212.914 162.352 213.5 163.039 213.938C163.742 214.375 164.633 214.594 165.711 214.594ZM186.406 183V219H180.195V183H186.406ZM185.422 205.406H183.594C183.594 203.641 183.828 202.016 184.297 200.531C184.766 199.047 185.43 197.758 186.289 196.664C187.148 195.555 188.172 194.695 189.359 194.086C190.562 193.477 191.891 193.172 193.344 193.172C194.594 193.172 195.727 193.352 196.742 193.711C197.773 194.055 198.656 194.609 199.391 195.375C200.125 196.141 200.688 197.141 201.078 198.375C201.484 199.594 201.688 201.078 201.688 202.828V219H195.453V202.781C195.453 201.609 195.281 200.688 194.938 200.016C194.594 199.328 194.102 198.836 193.461 198.539C192.836 198.242 192.062 198.094 191.141 198.094C190.141 198.094 189.281 198.289 188.562 198.68C187.844 199.055 187.25 199.578 186.781 200.25C186.328 200.922 185.984 201.695 185.75 202.57C185.531 203.445 185.422 204.391 185.422 205.406ZM213.711 193.641V219H207.5V193.641H213.711ZM207.078 187.008C207.078 186.086 207.391 185.32 208.016 184.711C208.656 184.102 209.516 183.797 210.594 183.797C211.672 183.797 212.523 184.102 213.148 184.711C213.789 185.32 214.109 186.086 214.109 187.008C214.109 187.914 213.789 188.672 213.148 189.281C212.523 189.891 211.672 190.195 210.594 190.195C209.516 190.195 208.656 189.891 208.016 189.281C207.391 188.672 207.078 187.914 207.078 187.008ZM228.031 214.312L233.938 193.641H240.406L231.711 219H227.773L228.031 214.312ZM223.719 193.641L229.695 214.359L229.906 219H225.945L217.227 193.641H223.719ZM242.188 206.578V206.086C242.188 204.227 242.453 202.516 242.984 200.953C243.516 199.375 244.289 198.008 245.305 196.852C246.32 195.695 247.562 194.797 249.031 194.156C250.5 193.5 252.172 193.172 254.047 193.172C255.953 193.172 257.641 193.5 259.109 194.156C260.594 194.797 261.844 195.695 262.859 196.852C263.875 198.008 264.648 199.375 265.18 200.953C265.711 202.516 265.977 204.227 265.977 206.086V206.578C265.977 208.422 265.711 210.133 265.18 211.711C264.648 213.273 263.875 214.641 262.859 215.812C261.844 216.969 260.602 217.867 259.133 218.508C257.664 219.148 255.984 219.469 254.094 219.469C252.219 219.469 250.539 219.148 249.055 218.508C247.57 217.867 246.32 216.969 245.305 215.812C244.289 214.641 243.516 213.273 242.984 211.711C242.453 210.133 242.188 208.422 242.188 206.578ZM248.375 206.086V206.578C248.375 207.688 248.484 208.727 248.703 209.695C248.922 210.664 249.258 211.516 249.711 212.25C250.164 212.984 250.75 213.562 251.469 213.984C252.203 214.391 253.078 214.594 254.094 214.594C255.094 214.594 255.953 214.391 256.672 213.984C257.391 213.562 257.977 212.984 258.43 212.25C258.898 211.516 259.242 210.664 259.461 209.695C259.68 208.727 259.789 207.688 259.789 206.578V206.086C259.789 204.992 259.68 203.969 259.461 203.016C259.242 202.047 258.898 201.195 258.43 200.461C257.977 199.711 257.383 199.125 256.648 198.703C255.93 198.266 255.062 198.047 254.047 198.047C253.047 198.047 252.188 198.266 251.469 198.703C250.75 199.125 250.164 199.711 249.711 200.461C249.258 201.195 248.922 202.047 248.703 203.016C248.484 203.969 248.375 204.992 248.375 206.086Z" fill="#28A745"/>
</svg>
