<svg width="418" height="376" viewBox="0 0 418 376" fill="none" xmlns="http://www.w3.org/2000/svg">
<g clip-path="url(#clip0_103_3)">
<path d="M353.23 148.877L361.665 117.399C365.814 101.916 363.99 85.8234 356.529 72.0874C356.435 71.9146 356.334 71.7475 356.238 71.5762L361.889 50.4882C362.753 47.2642 360.972 43.9853 357.911 43.1652C354.85 42.3451 351.668 44.2942 350.805 47.5183L347.549 59.6689C332.999 44.3205 311.664 39.5037 292.672 45.0328L295.945 32.8186C296.808 29.5945 295.027 26.3156 291.967 25.4955C288.906 24.6755 285.724 26.6241 284.86 29.8485L279.248 50.793C265.933 58.5891 255.953 71.6573 251.599 87.9072L243.164 119.386C233.154 122.932 225.392 131.4 222.491 142.226L219.966 151.65C215.289 169.105 224.965 186.918 241.535 191.358L318.655 212.022C335.225 216.462 352.511 205.874 357.188 188.418L359.713 178.995C362.614 168.167 360.125 156.951 353.23 148.877ZM277.83 169.591C276.966 172.816 273.784 174.765 270.724 173.945C267.663 173.125 265.882 169.846 266.746 166.621L270.49 152.65C271.354 149.425 274.536 147.476 277.596 148.296C280.657 149.117 282.438 152.395 281.574 155.62L277.83 169.591ZM309.19 177.994C308.326 181.218 305.144 183.168 302.083 182.347C299.023 181.527 297.242 178.248 298.106 175.024L301.849 161.052C302.713 157.828 305.895 155.879 308.955 156.699C312.016 157.519 313.797 160.798 312.933 164.022L309.19 177.994ZM343.399 141.234C336.174 137.745 257.551 117.832 255.5 117.682L262.683 90.8772C262.729 90.7046 262.782 90.5361 262.829 90.3651C288.625 100.251 318.023 87.138 329.76 60.7257C336.574 64.712 342.354 70.6505 346.479 78.244C352.437 89.2136 353.894 102.064 350.581 114.429L343.398 141.234L343.399 141.234Z" fill="#0A9808"/>
<path d="M253.648 58.3547L230.391 52.123C227.33 51.3029 224.148 53.252 223.284 56.4763C219.555 70.3962 226.723 84.5797 239.394 89.119C240.893 83.5264 243.58 71.3588 253.648 58.3547Z" fill="#0A9808"/>
<path d="M397.923 97.0131L374.697 90.7896C376.746 105.933 373.709 116.785 371.628 124.551C384.87 126.955 398.171 118.256 401.9 104.337C402.765 101.112 400.984 97.8332 397.923 97.0131Z" fill="#0A9808"/>
<path d="M275.327 112.869C279.376 113.954 283.585 111.376 284.728 107.111C285.87 102.845 283.514 98.5084 279.466 97.4235C275.417 96.3386 271.208 98.9167 270.065 103.182C268.922 107.447 271.278 111.784 275.327 112.869Z" fill="#0A9808"/>
<path d="M328.634 127.153C332.683 128.238 336.891 125.66 338.034 121.394C339.177 117.129 336.821 112.792 332.772 111.707C328.723 110.622 324.515 113.2 323.372 117.466C322.229 121.731 324.585 126.068 328.634 127.153Z" fill="#0A9808"/>
</g>
<path d="M78.8125 52.8125C78.7292 53.6458 78.3125 54.9792 77.5625 56.8125C76.8542 58.6458 75.9167 60.8333 74.75 63.375C73.625 65.875 72.2917 68.6458 70.75 71.6875C69.2083 74.7292 67.5625 77.875 65.8125 81.125C64.0625 84.375 62.25 87.6667 60.375 91C58.5 94.3333 56.625 97.5417 54.75 100.625C51.625 105.792 48.5833 110.5 45.625 114.75C42.7083 119 40.0417 122.562 37.625 125.438C37.9583 126.062 38.125 126.688 38.125 127.312C38.125 128.271 37.7083 129.125 36.875 129.875C36.0833 130.625 35.0208 131.25 33.6875 131.75C32.3958 132.25 30.9167 132.625 29.25 132.875C27.5833 133.167 25.875 133.312 24.125 133.312C22.7917 133.312 21.7708 133 21.0625 132.375C20.3958 131.792 20.0625 131.021 20.0625 130.062C20.0625 128.896 20.3333 127.938 20.875 127.188C21.4583 126.438 22.1458 125.896 22.9375 125.562C22.8125 124.688 22.6042 123.375 22.3125 121.625C22.0208 119.875 21.7083 117.854 21.375 115.562C21.0417 113.271 20.6875 110.792 20.3125 108.125C19.9375 105.458 19.5833 102.771 19.25 100.062C18.9167 97.3542 18.6042 94.7083 18.3125 92.125C18.0208 89.5 17.8125 87.125 17.6875 85C17.4792 82 17.3125 79.1667 17.1875 76.5C17.0625 73.8333 17 71.3125 17 68.9375C17 66.6875 17.0625 64.625 17.1875 62.75C17.3125 60.8333 17.4792 59.1458 17.6875 57.6875C17.9375 56.1875 18.4375 54.75 19.1875 53.375C19.9792 51.9583 20.8958 50.7083 21.9375 49.625C23.0208 48.5 24.1875 47.625 25.4375 47C26.6875 46.3333 27.9167 46 29.125 46C30.5 46 31.4583 46.5833 32 47.75C32.5833 48.875 32.875 50.4792 32.875 52.5625C32.875 53.8958 32.7708 55.4167 32.5625 57.125C32.3542 58.7917 32.125 60.375 31.875 61.875C31.625 63.4583 31.4167 64.75 31.25 65.75L30.9375 67.1875C30.8125 67.9375 30.7292 68.8333 30.6875 69.875C30.6458 70.875 30.625 72.0208 30.625 73.3125C30.625 75.9792 30.7292 79.0417 30.9375 82.5C31.1458 85.9583 31.4167 89.5 31.75 93.125C32.0833 96.7083 32.4583 100.208 32.875 103.625C33.3333 107.042 33.7917 110.042 34.25 112.625C37.125 108.875 40.0417 104.667 43 100C45.9583 95.2917 48.6875 90.3958 51.1875 85.3125C53.3125 81.1042 55.3958 76.7917 57.4375 72.375C59.5208 67.9583 61.625 63.6458 63.75 59.4375C67.5833 52.3958 71.0833 48.875 74.25 48.875C75.5833 48.875 76.6875 49.0833 77.5625 49.5C78.4375 49.9167 78.875 50.7292 78.875 51.9375C78.875 52.3125 78.8542 52.6042 78.8125 52.8125ZM92.875 92.125C92.6667 92.0833 92.4792 92.0625 92.3125 92.0625C92.1458 92.0625 91.9583 92.0625 91.75 92.0625C90.1667 92.0625 88.6875 92.375 87.3125 93C85.9375 93.625 84.6667 94.4583 83.5 95.5C82.375 96.5 81.3542 97.6458 80.4375 98.9375C79.5625 100.229 78.7708 101.521 78.0625 102.812C77.3542 104.062 76.75 105.271 76.25 106.438C75.7917 107.604 75.4375 108.583 75.1875 109.375C76.6458 108.625 78.1458 107.771 79.6875 106.812C81.2708 105.854 82.75 104.938 84.125 104.062C85.5 103.188 86.6875 102.396 87.6875 101.688C88.7292 100.979 89.4583 100.5 89.875 100.25C91.75 99.0833 93.0417 98 93.75 97C94.4583 95.9583 94.8125 95.0625 94.8125 94.3125C94.8125 93.6875 94.6042 93.1875 94.1875 92.8125C93.8125 92.4375 93.375 92.2083 92.875 92.125ZM95.125 83.5C98.5833 83.5 101.167 84.3333 102.875 86C104.583 87.6667 105.438 89.9792 105.438 92.9375C105.438 94.6875 104.979 96.5208 104.062 98.4375C103.146 100.354 101.562 102.312 99.3125 104.312C97.0625 106.271 94.0417 108.292 90.25 110.375C86.5 112.417 81.7917 114.479 76.125 116.562C76.3333 117.771 76.9792 118.729 78.0625 119.438C79.1458 120.104 80.5833 120.438 82.375 120.438C84.2917 120.438 86.3333 120.167 88.5 119.625C90.7083 119.042 92.875 118.312 95 117.438C97.1667 116.562 99.2708 115.625 101.312 114.625C103.354 113.583 105.188 112.604 106.812 111.688C108.479 110.771 109.854 109.979 110.938 109.312C112.062 108.646 112.812 108.229 113.188 108.062C113.562 107.812 113.896 107.667 114.188 107.625C114.521 107.583 114.812 107.562 115.062 107.562C115.562 107.562 115.979 107.688 116.312 107.938C116.646 108.146 116.917 108.417 117.125 108.75C117.375 109.042 117.542 109.375 117.625 109.75C117.708 110.083 117.75 110.375 117.75 110.625C117.75 111 117.708 111.458 117.625 112C117.542 112.5 117.229 113.083 116.688 113.75C116.479 113.958 115.771 114.521 114.562 115.438C113.396 116.354 111.875 117.438 110 118.688C108.125 119.938 105.938 121.271 103.438 122.688C100.979 124.062 98.3542 125.333 95.5625 126.5C92.8125 127.667 89.9375 128.625 86.9375 129.375C83.9375 130.167 80.9792 130.562 78.0625 130.562C75.5625 130.562 73.3333 130.083 71.375 129.125C69.4583 128.167 67.8125 126.875 66.4375 125.25C65.1042 123.625 64.0833 121.75 63.375 119.625C62.6667 117.5 62.3125 115.271 62.3125 112.938C62.3125 111.146 62.6667 109.188 63.375 107.062C64.0833 104.896 65.1042 102.729 66.4375 100.562C67.7708 98.3958 69.3958 96.2917 71.3125 94.25C73.2708 92.1667 75.4583 90.3333 77.875 88.75C80.2917 87.1667 82.9375 85.8958 85.8125 84.9375C88.7292 83.9792 91.8333 83.5 95.125 83.5ZM129.688 94.25C128.146 97.25 126.688 100.188 125.312 103.062C123.938 105.896 122.646 108.521 121.438 110.938C120.938 111.938 120.438 113.104 119.938 114.438C119.479 115.729 119.25 116.875 119.25 117.875C119.25 118.458 119.375 118.917 119.625 119.25C119.917 119.583 120.375 119.75 121 119.75C121.875 119.75 122.979 119.5 124.312 119C125.646 118.458 127.083 117.771 128.625 116.938C130.167 116.062 131.792 115.083 133.5 114C135.208 112.875 136.875 111.729 138.5 110.562C140.167 109.354 141.75 108.167 143.25 107C144.75 105.792 146.083 104.688 147.25 103.688C147.917 103.229 148.542 103 149.125 103C149.833 103 150.417 103.312 150.875 103.938C151.333 104.562 151.562 105.354 151.562 106.312C151.562 107.271 151.333 108.25 150.875 109.25C150.417 110.25 149.583 111.229 148.375 112.188C145.667 114.646 142.917 116.979 140.125 119.188C137.375 121.396 134.625 123.354 131.875 125.062C129.167 126.729 126.479 128.062 123.812 129.062C121.146 130.062 118.562 130.562 116.062 130.562C114.396 130.562 113 130.333 111.875 129.875C110.75 129.458 109.833 128.875 109.125 128.125C108.458 127.333 107.979 126.438 107.688 125.438C107.396 124.396 107.25 123.292 107.25 122.125C107.25 120.042 107.604 117.875 108.312 115.625C109.021 113.375 109.812 111.354 110.688 109.562C111.938 106.979 113.167 104.417 114.375 101.875C115.625 99.3333 116.833 96.8958 118 94.5625H115.312C112.979 94.5625 111.375 94.1875 110.5 93.4375C109.625 92.6875 109.188 91.8333 109.188 90.875C109.188 90.4583 109.312 89.9583 109.562 89.375C109.854 88.75 110.25 88.1875 110.75 87.6875C111.292 87.1458 111.938 86.6875 112.688 86.3125C113.438 85.9375 114.292 85.75 115.25 85.75H122L135.188 59.5625C136.021 57.9792 137.042 56.8542 138.25 56.1875C139.5 55.4792 140.792 55.125 142.125 55.125C143.375 55.125 144.521 55.4583 145.562 56.125C146.604 56.7917 147.125 57.8958 147.125 59.4375C147.125 60.2292 146.938 61.0417 146.562 61.875C146.229 62.6667 145.771 63.6042 145.188 64.6875C144.812 65.3958 144.354 66.25 143.812 67.25C143.271 68.2083 142.688 69.25 142.062 70.375C141.479 71.4583 140.854 72.6042 140.188 73.8125C139.562 75.0208 138.938 76.1875 138.312 77.3125C136.896 79.9792 135.396 82.7917 133.812 85.75H154.188C155.188 85.75 156.104 85.8125 156.938 85.9375C157.771 86.0208 158.479 86.2292 159.062 86.5625C159.688 86.8542 160.167 87.2708 160.5 87.8125C160.833 88.3542 161 89.0833 161 90C161 90.4583 160.917 90.9167 160.75 91.375C160.625 91.8333 160.354 92.25 159.938 92.625C159.562 93 159.021 93.3125 158.312 93.5625C157.646 93.8125 156.771 93.9792 155.688 94.0625L129.688 94.25ZM67.25 231.188C67.0417 231.979 66.8125 232.896 66.5625 233.938C66.3542 234.938 66.25 235.896 66.25 236.812C66.25 237.646 66.375 238.354 66.625 238.938C66.875 239.521 67.4167 239.812 68.25 239.812C69.375 239.812 70.7083 239.417 72.25 238.625C73.8333 237.792 75.5208 236.708 77.3125 235.375C79.1042 234 80.9583 232.438 82.875 230.688C84.7917 228.896 86.6875 227.062 88.5625 225.188C90.4375 223.271 92.2292 221.354 93.9375 219.438C95.6458 217.521 97.1667 215.729 98.5 214.062L100.812 222.375C98.0625 226.042 95.2292 229.562 92.3125 232.938C89.3958 236.312 86.4167 239.292 83.375 241.875C80.375 244.458 77.3542 246.521 74.3125 248.062C71.2708 249.604 68.25 250.375 65.25 250.375C63.5 250.375 62 250.083 60.75 249.5C59.5417 248.958 58.5625 248.208 57.8125 247.25C57.0625 246.25 56.5 245.125 56.125 243.875C55.7917 242.583 55.625 241.229 55.625 239.812C55.625 239.271 55.6458 238.5 55.6875 237.5C55.7292 236.5 55.7708 235.479 55.8125 234.438C55.8958 233.354 55.9583 232.375 56 231.5C56.0833 230.625 56.125 230.062 56.125 229.812L33.9375 231.188L23.625 231.312C21.875 235.104 20.1458 238.458 18.4375 241.375C17.6875 242.625 16.8958 243.854 16.0625 245.062C15.2292 246.271 14.3958 247.354 13.5625 248.312C12.7292 249.229 11.8958 249.958 11.0625 250.5C10.2292 251.083 9.41667 251.375 8.625 251.375C7.375 251.375 6.35417 251.188 5.5625 250.812C4.77083 250.438 4.14583 249.958 3.6875 249.375C3.22917 248.833 2.89583 248.208 2.6875 247.5C2.52083 246.792 2.4375 246.125 2.4375 245.5C2.4375 244.417 2.58333 243.354 2.875 242.312C3.16667 241.229 3.58333 240.208 4.125 239.25L12.375 225.375C12.75 224.792 13.5 223.396 14.625 221.188C15.7917 218.979 17.2708 216.271 19.0625 213.062C20.8958 209.812 23 206.229 25.375 202.312C27.75 198.396 30.3125 194.438 33.0625 190.438C35.8542 186.396 38.7917 182.479 41.875 178.688C45 174.896 48.1875 171.542 51.4375 168.625C54.7292 165.667 58.0417 163.312 61.375 161.562C64.7083 159.771 68.0208 158.875 71.3125 158.875C74.3958 158.875 77.4167 159.833 80.375 161.75C83.375 163.667 86.2292 166.812 88.9375 171.188C89.2292 171.771 89.375 172.271 89.375 172.688C89.375 173.229 89.2292 173.771 88.9375 174.312C88.6458 174.854 88.25 175.333 87.75 175.75C87.2917 176.167 86.7708 176.5 86.1875 176.75C85.6042 177 85 177.125 84.375 177.125C83.625 177.125 82.75 176.958 81.75 176.625C80.7917 176.292 79.875 175.583 79 174.5C77.7083 173 76.3542 171.917 74.9375 171.25C73.5625 170.542 72.1875 170.188 70.8125 170.188C68.8542 170.188 66.8542 170.75 64.8125 171.875C62.7708 172.958 60.7083 174.458 58.625 176.375C56.5833 178.25 54.5417 180.438 52.5 182.938C50.4583 185.396 48.4792 188 46.5625 190.75C44.6458 193.5 42.7917 196.312 41 199.188C39.2083 202.062 37.5208 204.812 35.9375 207.438C34.3542 210.062 32.8958 212.479 31.5625 214.688C30.2708 216.896 29.125 218.75 28.125 220.25H39.5625L58.875 218.812C59.25 217.979 59.75 216.854 60.375 215.438C61 213.979 61.6875 212.354 62.4375 210.562C63.2292 208.771 64.0833 206.833 65 204.75C65.9167 202.667 66.8333 200.583 67.75 198.5C68.7083 196.375 69.6458 194.292 70.5625 192.25C71.4792 190.167 72.3333 188.25 73.125 186.5C73.6667 184.917 74.4583 183.792 75.5 183.125C76.5833 182.458 77.7292 182.125 78.9375 182.125C79.5625 182.125 80.1875 182.229 80.8125 182.438C81.4375 182.604 82 182.896 82.5 183.312C83.0417 183.688 83.4792 184.188 83.8125 184.812C84.1458 185.396 84.3333 186.104 84.375 186.938C84.375 187.729 84.0208 189.083 83.3125 191C82.6458 192.917 81.7708 195.167 80.6875 197.75C79.6458 200.333 78.4583 203.146 77.125 206.188C75.8333 209.188 74.5417 212.208 73.25 215.25C72 218.25 70.8333 221.146 69.75 223.938C68.6667 226.688 67.8333 229.104 67.25 231.188ZM99.3125 211.062C100.146 209.271 101.188 207.938 102.438 207.062C103.688 206.188 104.917 205.75 106.125 205.75C107.125 205.75 108.021 206.125 108.812 206.875C109.604 207.583 110 208.646 110 210.062C110 210.604 109.938 211.188 109.812 211.812C109.688 212.438 109.458 213.104 109.125 213.812C110.042 212.646 111.354 211.458 113.062 210.25C114.771 209 116.646 207.896 118.688 206.938C120.771 205.938 122.896 205.125 125.062 204.5C127.271 203.875 129.354 203.562 131.312 203.562C133.521 203.562 135.354 204.104 136.812 205.188C138.312 206.229 139.062 208.021 139.062 210.562C139.062 212.062 138.833 213.625 138.375 215.25C137.917 216.875 137.312 218.5 136.562 220.125C135.854 221.75 135.042 223.354 134.125 224.938C133.25 226.479 132.375 227.938 131.5 229.312C130.625 230.688 129.812 231.958 129.062 233.125C128.354 234.25 127.792 235.188 127.375 235.938C126.833 236.604 126.562 237.375 126.562 238.25C126.562 238.583 126.667 238.875 126.875 239.125C127.083 239.375 127.417 239.5 127.875 239.5C128.167 239.5 128.5 239.479 128.875 239.438C129.25 239.354 129.708 239.125 130.25 238.75C132.5 237.917 134.792 236.875 137.125 235.625C139.5 234.375 141.771 233.062 143.938 231.688C146.104 230.271 148.083 228.875 149.875 227.5C151.708 226.083 153.229 224.812 154.438 223.688C154.771 223.396 155.104 223.188 155.438 223.062C155.771 222.938 156.083 222.875 156.375 222.875C157.083 222.875 157.625 223.146 158 223.688C158.417 224.229 158.625 224.917 158.625 225.75C158.625 227.042 158.208 228.479 157.375 230.062C156.583 231.646 155.312 233.125 153.562 234.5C151.188 236.208 149 237.771 147 239.188C145.042 240.604 143.021 241.938 140.938 243.188C138.896 244.396 136.688 245.542 134.312 246.625C131.979 247.667 129.229 248.646 126.062 249.562C124.979 249.896 123.979 250.146 123.062 250.312C122.188 250.479 121.375 250.562 120.625 250.562C118.417 250.562 116.792 249.958 115.75 248.75C114.75 247.5 114.25 245.771 114.25 243.562C114.25 243.271 114.25 243 114.25 242.75C114.292 242.458 114.333 242.146 114.375 241.812C114.458 240.521 114.792 239.104 115.375 237.562C116 236.021 116.729 234.438 117.562 232.812C118.438 231.188 119.354 229.583 120.312 228C121.271 226.375 122.146 224.854 122.938 223.438C123.771 221.979 124.458 220.688 125 219.562C125.542 218.438 125.812 217.521 125.812 216.812C125.812 216.188 125.625 215.667 125.25 215.25C124.917 214.792 124.396 214.562 123.688 214.562C121.021 214.562 118.479 215.354 116.062 216.938C113.688 218.521 111.458 220.479 109.375 222.812C107.292 225.104 105.375 227.542 103.625 230.125C101.875 232.708 100.333 235.021 99 237.062C98.1667 238.438 97.3958 239.917 96.6875 241.5C96.0208 243.042 95.3125 244.5 94.5625 245.875C93.8125 247.208 92.9583 248.312 92 249.188C91.0833 250.104 89.9167 250.562 88.5 250.562C87.0417 250.562 85.8958 250.104 85.0625 249.188C84.2292 248.271 83.8125 247.146 83.8125 245.812C83.8125 245.104 84.1042 243.958 84.6875 242.375C85.2708 240.792 86.0208 238.958 86.9375 236.875C87.8542 234.792 88.875 232.562 90 230.188C91.1667 227.771 92.3125 225.396 93.4375 223.062C94.6042 220.688 95.7083 218.458 96.75 216.375C97.7917 214.292 98.6458 212.521 99.3125 211.062ZM175 214.875C173.042 214.875 171.146 215.375 169.312 216.375C167.479 217.375 165.854 218.688 164.438 220.312C163.021 221.938 161.896 223.771 161.062 225.812C160.229 227.812 159.812 229.833 159.812 231.875C159.812 232.708 159.854 233.583 159.938 234.5C160.062 235.375 160.312 236.188 160.688 236.938C161.062 237.688 161.583 238.312 162.25 238.812C162.958 239.312 163.896 239.562 165.062 239.562C165.979 239.562 167.042 239.167 168.25 238.375C169.5 237.542 170.771 236.5 172.062 235.25C173.396 233.958 174.688 232.562 175.938 231.062C177.188 229.521 178.312 228.021 179.312 226.562C180.312 225.104 181.125 223.792 181.75 222.625C182.375 221.458 182.688 220.604 182.688 220.062C182.688 219.271 182.417 218.562 181.875 217.938C181.333 217.271 180.667 216.708 179.875 216.25C179.083 215.792 178.229 215.458 177.312 215.25C176.438 215 175.667 214.875 175 214.875ZM218.312 231C217.562 231.708 216.562 232.688 215.312 233.938C214.062 235.188 212.625 236.542 211 238C209.417 239.458 207.708 240.938 205.875 242.438C204.083 243.896 202.229 245.229 200.312 246.438C198.438 247.646 196.583 248.625 194.75 249.375C192.917 250.167 191.188 250.562 189.562 250.562C188.104 250.562 186.854 250.25 185.812 249.625C184.771 249 183.896 248.188 183.188 247.188C182.521 246.188 182.021 245.062 181.688 243.812C181.354 242.521 181.188 241.208 181.188 239.875C181.188 239 181.25 238.146 181.375 237.312C181.5 236.438 181.708 235.625 182 234.875C180.708 236.625 179.229 238.438 177.562 240.312C175.938 242.146 174.167 243.833 172.25 245.375C170.375 246.875 168.396 248.104 166.312 249.062C164.271 250.062 162.188 250.562 160.062 250.562C158.979 250.562 157.708 250.333 156.25 249.875C154.833 249.458 153.479 248.75 152.188 247.75C150.896 246.75 149.812 245.458 148.938 243.875C148.062 242.292 147.625 240.354 147.625 238.062C147.625 236.354 147.875 234.312 148.375 231.938C148.917 229.562 149.708 227.104 150.75 224.562C151.833 221.979 153.188 219.438 154.812 216.938C156.479 214.438 158.438 212.208 160.688 210.25C162.938 208.25 165.5 206.646 168.375 205.438C171.25 204.188 174.458 203.562 178 203.562C179.833 203.562 181.438 203.792 182.812 204.25C184.188 204.708 185.354 205.208 186.312 205.75C187.396 206.417 188.354 207.146 189.188 207.938C189.896 207.562 190.625 207.208 191.375 206.875C192 206.583 192.646 206.333 193.312 206.125C194.021 205.875 194.625 205.75 195.125 205.75C196.708 205.75 198 206.188 199 207.062C200 207.938 200.5 208.896 200.5 209.938C200.5 210.229 200.479 210.458 200.438 210.625C200.229 211.417 199.896 212.417 199.438 213.625C199.021 214.833 198.542 216.188 198 217.688C197.458 219.146 196.896 220.688 196.312 222.312C195.771 223.896 195.271 225.458 194.812 227C194.354 228.542 193.979 230 193.688 231.375C193.396 232.708 193.25 233.854 193.25 234.812C193.25 236.062 193.458 237.104 193.875 237.938C194.292 238.729 195 239.125 196 239.125C196.625 239.125 197.354 238.938 198.188 238.562C199.062 238.146 200 237.604 201 236.938C202 236.271 203.021 235.521 204.062 234.688C205.146 233.812 206.188 232.938 207.188 232.062C209.521 229.979 212 227.604 214.625 224.938C215.292 224.396 215.938 224.125 216.562 224.125C217.396 224.125 218.083 224.542 218.625 225.375C219.208 226.167 219.5 227.062 219.5 228.062C219.5 229.229 219.104 230.208 218.312 231ZM186.25 190.125C187.75 187.5 189.25 184.896 190.75 182.312C192.292 179.729 193.792 177.125 195.25 174.5C196.833 171.875 198.458 170.021 200.125 168.938C201.792 167.854 203.292 167.312 204.625 167.312C205.875 167.312 206.896 167.708 207.688 168.5C208.479 169.292 208.875 170.333 208.875 171.625C208.875 172.458 208.688 173.375 208.312 174.375C207.938 175.375 207.271 176.417 206.312 177.5C204.062 180.125 201.792 182.729 199.5 185.312C197.25 187.896 195 190.5 192.75 193.125C191.667 194.542 190.521 195.604 189.312 196.312C188.104 197.021 187.083 197.375 186.25 197.375C184.958 197.375 184.312 196.708 184.312 195.375C184.312 194.167 184.958 192.417 186.25 190.125ZM220.812 230.938C220.354 231.896 219.896 233.021 219.438 234.312C219.021 235.562 218.812 236.688 218.812 237.688C218.812 238.312 218.938 238.812 219.188 239.188C219.438 239.562 219.917 239.75 220.625 239.75C221.5 239.75 222.583 239.5 223.875 239C225.208 238.458 226.625 237.771 228.125 236.938C229.667 236.062 231.25 235.083 232.875 234C234.542 232.875 236.188 231.729 237.812 230.562C239.438 229.354 240.979 228.167 242.438 227C243.938 225.792 245.271 224.688 246.438 223.688C246.771 223.396 247.167 223.188 247.625 223.062C248.083 222.938 248.479 222.875 248.812 222.875C249.646 222.875 250.333 223.167 250.875 223.75C251.417 224.333 251.688 225.104 251.688 226.062C251.688 226.938 251.396 227.917 250.812 229C250.229 230.083 249.208 231.146 247.75 232.188C245.083 234.646 242.396 236.979 239.688 239.188C236.979 241.396 234.271 243.354 231.562 245.062C228.896 246.729 226.229 248.062 223.562 249.062C220.938 250.062 218.375 250.562 215.875 250.562C214.167 250.562 212.729 250.333 211.562 249.875C210.438 249.417 209.521 248.792 208.812 248C208.146 247.208 207.667 246.271 207.375 245.188C207.083 244.104 206.938 242.958 206.938 241.75C206.938 239.708 207.229 237.625 207.812 235.5C208.438 233.333 209.167 231.354 210 229.562C211.458 226.312 212.938 223.083 214.438 219.875C215.938 216.667 217.312 213.729 218.562 211.062L237.5 170.75C238.25 169.125 239.25 167.979 240.5 167.312C241.792 166.646 243.083 166.312 244.375 166.312C245.667 166.312 246.833 166.667 247.875 167.375C248.958 168.083 249.5 169.229 249.5 170.812C249.5 171.562 249.312 172.354 248.938 173.188C248.604 174.021 248.167 174.917 247.625 175.875C246.583 177.833 245.333 180.229 243.875 183.062C242.458 185.896 240.917 188.979 239.25 192.312C237.625 195.646 235.938 199.125 234.188 202.75C232.479 206.333 230.792 209.833 229.125 213.25C227.5 216.667 225.958 219.917 224.5 223C223.083 226.042 221.854 228.688 220.812 230.938ZM258.375 194.938C258.375 193.979 258.542 193 258.875 192C259.25 190.958 259.792 190.021 260.5 189.188C261.208 188.354 262.083 187.667 263.125 187.125C264.208 186.583 265.479 186.312 266.938 186.312C269.354 186.312 271.042 186.792 272 187.75C272.958 188.667 273.438 189.833 273.438 191.25C273.438 192.042 273.271 192.917 272.938 193.875C272.646 194.833 272.188 195.729 271.562 196.562C270.938 197.354 270.125 198.021 269.125 198.562C268.125 199.104 266.938 199.375 265.562 199.375C262.979 199.375 261.167 198.979 260.125 198.188C259.083 197.354 258.5 196.271 258.375 194.938ZM251.5 209C252.208 207.833 253.021 207 253.938 206.5C254.854 206 255.792 205.75 256.75 205.75C258.333 205.75 259.688 206.271 260.812 207.312C261.979 208.312 262.562 209.604 262.562 211.188C262.521 211.562 262.458 211.938 262.375 212.312C262.333 212.688 262.208 213.062 262 213.438C261.417 214.521 260.938 215.438 260.562 216.188C260.188 216.938 259.833 217.646 259.5 218.312C259.208 218.938 258.917 219.562 258.625 220.188C258.333 220.812 257.979 221.562 257.562 222.438C257.062 223.479 256.5 224.625 255.875 225.875C255.25 227.083 254.646 228.333 254.062 229.625C253.521 230.917 253.042 232.188 252.625 233.438C252.25 234.688 252.062 235.833 252.062 236.875C252.062 238 252.333 238.75 252.875 239.125C253.458 239.458 254.271 239.625 255.312 239.625C256.479 239.625 257.688 239.375 258.938 238.875C260.229 238.375 261.521 237.729 262.812 236.938C264.104 236.146 265.375 235.25 266.625 234.25C267.875 233.208 269.042 232.167 270.125 231.125C271.25 230.083 272.271 229.083 273.188 228.125C274.146 227.167 274.938 226.312 275.562 225.562C276.396 224.771 277.229 224.375 278.062 224.375C278.812 224.375 279.417 224.708 279.875 225.375C280.375 226.042 280.625 226.896 280.625 227.938C280.625 228.896 280.375 229.917 279.875 231C279.417 232.083 278.646 233.104 277.562 234.062C275.438 236.229 273.271 238.312 271.062 240.312C268.854 242.271 266.583 244.021 264.25 245.562C261.958 247.062 259.646 248.271 257.312 249.188C254.979 250.104 252.625 250.562 250.25 250.562C246.875 250.562 244.208 249.708 242.25 248C240.333 246.25 239.375 243.542 239.375 239.875C239.375 237.958 239.646 236.083 240.188 234.25C240.729 232.417 241.375 230.646 242.125 228.938C242.875 227.188 243.667 225.521 244.5 223.938C245.333 222.312 246.042 220.771 246.625 219.312C246.833 218.771 247.188 217.938 247.688 216.812C248.229 215.688 248.792 214.542 249.375 213.375C250.042 212 250.75 210.542 251.5 209ZM291.25 213.812C293.792 215.146 296.062 216.667 298.062 218.375C300.062 220.083 301.75 221.896 303.125 223.812C304.542 225.688 305.604 227.604 306.312 229.562C307.062 231.521 307.438 233.438 307.438 235.312C307.438 237.688 306.75 239.833 305.375 241.75C304.042 243.625 302.271 245.229 300.062 246.562C297.896 247.854 295.396 248.833 292.562 249.5C289.771 250.208 286.938 250.562 284.062 250.562C281.896 250.562 279.792 250.312 277.75 249.812C275.708 249.354 273.833 248.625 272.125 247.625C270.458 246.625 269.021 245.354 267.812 243.812C266.604 242.229 265.75 240.354 265.25 238.188C265.167 237.854 265.125 237.583 265.125 237.375C265.125 236.25 265.521 235.292 266.312 234.5C267.104 233.667 267.979 233.25 268.938 233.25C269.396 233.25 269.896 233.333 270.438 233.5C271.021 233.667 271.458 234.042 271.75 234.625C272.292 235.625 273.042 236.521 274 237.312C275 238.104 276.104 238.792 277.312 239.375C278.521 239.917 279.792 240.354 281.125 240.688C282.5 240.979 283.833 241.125 285.125 241.125C286.458 241.125 287.729 241 288.938 240.75C290.188 240.5 291.271 240.104 292.188 239.562C293.146 239.021 293.896 238.333 294.438 237.5C294.979 236.667 295.25 235.646 295.25 234.438C295.25 232.312 294.771 230.354 293.812 228.562C292.854 226.771 291.604 225.125 290.062 223.625C288.562 222.083 286.833 220.667 284.875 219.375C282.958 218.042 281.042 216.771 279.125 215.562C278.917 215.438 278.604 215.083 278.188 214.5C277.771 213.875 277.562 213.25 277.562 212.625C277.562 212.125 277.688 211.729 277.938 211.438C278.604 210.562 279.375 209.667 280.25 208.75C281.125 207.833 282.062 207 283.062 206.25C284.062 205.458 285.146 204.833 286.312 204.375C287.479 203.875 288.688 203.625 289.938 203.625C290.854 203.625 291.708 203.75 292.5 204C293.292 204.25 293.958 204.583 294.5 205C295.042 205.375 295.458 205.812 295.75 206.312C296.083 206.771 296.25 207.208 296.25 207.625C296.25 208.208 296.104 208.771 295.812 209.312C295.521 209.854 295.125 210.375 294.625 210.875C294.167 211.375 293.625 211.875 293 212.375C292.417 212.875 291.833 213.354 291.25 213.812ZM326.625 194.938C326.625 193.979 326.792 193 327.125 192C327.5 190.958 328.042 190.021 328.75 189.188C329.458 188.354 330.333 187.667 331.375 187.125C332.458 186.583 333.729 186.312 335.188 186.312C337.604 186.312 339.292 186.792 340.25 187.75C341.208 188.667 341.688 189.833 341.688 191.25C341.688 192.042 341.521 192.917 341.188 193.875C340.896 194.833 340.438 195.729 339.812 196.562C339.188 197.354 338.375 198.021 337.375 198.562C336.375 199.104 335.188 199.375 333.812 199.375C331.229 199.375 329.417 198.979 328.375 198.188C327.333 197.354 326.75 196.271 326.625 194.938ZM319.75 209C320.458 207.833 321.271 207 322.188 206.5C323.104 206 324.042 205.75 325 205.75C326.583 205.75 327.938 206.271 329.062 207.312C330.229 208.312 330.812 209.604 330.812 211.188C330.771 211.562 330.708 211.938 330.625 212.312C330.583 212.688 330.458 213.062 330.25 213.438C329.667 214.521 329.188 215.438 328.812 216.188C328.438 216.938 328.083 217.646 327.75 218.312C327.458 218.938 327.167 219.562 326.875 220.188C326.583 220.812 326.229 221.562 325.812 222.438C325.312 223.479 324.75 224.625 324.125 225.875C323.5 227.083 322.896 228.333 322.312 229.625C321.771 230.917 321.292 232.188 320.875 233.438C320.5 234.688 320.312 235.833 320.312 236.875C320.312 238 320.583 238.75 321.125 239.125C321.708 239.458 322.521 239.625 323.562 239.625C324.729 239.625 325.938 239.375 327.188 238.875C328.479 238.375 329.771 237.729 331.062 236.938C332.354 236.146 333.625 235.25 334.875 234.25C336.125 233.208 337.292 232.167 338.375 231.125C339.5 230.083 340.521 229.083 341.438 228.125C342.396 227.167 343.188 226.312 343.812 225.562C344.646 224.771 345.479 224.375 346.312 224.375C347.062 224.375 347.667 224.708 348.125 225.375C348.625 226.042 348.875 226.896 348.875 227.938C348.875 228.896 348.625 229.917 348.125 231C347.667 232.083 346.896 233.104 345.812 234.062C343.688 236.229 341.521 238.312 339.312 240.312C337.104 242.271 334.833 244.021 332.5 245.562C330.208 247.062 327.896 248.271 325.562 249.188C323.229 250.104 320.875 250.562 318.5 250.562C315.125 250.562 312.458 249.708 310.5 248C308.583 246.25 307.625 243.542 307.625 239.875C307.625 237.958 307.896 236.083 308.438 234.25C308.979 232.417 309.625 230.646 310.375 228.938C311.125 227.188 311.917 225.521 312.75 223.938C313.583 222.312 314.292 220.771 314.875 219.312C315.083 218.771 315.438 217.938 315.938 216.812C316.479 215.688 317.042 214.542 317.625 213.375C318.292 212 319 210.542 319.75 209ZM359.5 213.812C362.042 215.146 364.312 216.667 366.312 218.375C368.312 220.083 370 221.896 371.375 223.812C372.792 225.688 373.854 227.604 374.562 229.562C375.312 231.521 375.688 233.438 375.688 235.312C375.688 237.688 375 239.833 373.625 241.75C372.292 243.625 370.521 245.229 368.312 246.562C366.146 247.854 363.646 248.833 360.812 249.5C358.021 250.208 355.188 250.562 352.312 250.562C350.146 250.562 348.042 250.312 346 249.812C343.958 249.354 342.083 248.625 340.375 247.625C338.708 246.625 337.271 245.354 336.062 243.812C334.854 242.229 334 240.354 333.5 238.188C333.417 237.854 333.375 237.583 333.375 237.375C333.375 236.25 333.771 235.292 334.562 234.5C335.354 233.667 336.229 233.25 337.188 233.25C337.646 233.25 338.146 233.333 338.688 233.5C339.271 233.667 339.708 234.042 340 234.625C340.542 235.625 341.292 236.521 342.25 237.312C343.25 238.104 344.354 238.792 345.562 239.375C346.771 239.917 348.042 240.354 349.375 240.688C350.75 240.979 352.083 241.125 353.375 241.125C354.708 241.125 355.979 241 357.188 240.75C358.438 240.5 359.521 240.104 360.438 239.562C361.396 239.021 362.146 238.333 362.688 237.5C363.229 236.667 363.5 235.646 363.5 234.438C363.5 232.312 363.021 230.354 362.062 228.562C361.104 226.771 359.854 225.125 358.312 223.625C356.812 222.083 355.083 220.667 353.125 219.375C351.208 218.042 349.292 216.771 347.375 215.562C347.167 215.438 346.854 215.083 346.438 214.5C346.021 213.875 345.812 213.25 345.812 212.625C345.812 212.125 345.938 211.729 346.188 211.438C346.854 210.562 347.625 209.667 348.5 208.75C349.375 207.833 350.312 207 351.312 206.25C352.312 205.458 353.396 204.833 354.562 204.375C355.729 203.875 356.938 203.625 358.188 203.625C359.104 203.625 359.958 203.75 360.75 204C361.542 204.25 362.208 204.583 362.75 205C363.292 205.375 363.708 205.812 364 206.312C364.333 206.771 364.5 207.208 364.5 207.625C364.5 208.208 364.354 208.771 364.062 209.312C363.771 209.854 363.375 210.375 362.875 210.875C362.417 211.375 361.875 211.875 361.25 212.375C360.667 212.875 360.083 213.354 359.5 213.812ZM58 312.688C57.2917 313.979 56.3542 315.688 55.1875 317.812C54.0625 319.938 52.75 322.312 51.25 324.938C49.7917 327.562 48.1875 330.396 46.4375 333.438C44.7292 336.438 42.9375 339.458 41.0625 342.5C39.2292 345.542 37.3333 348.542 35.375 351.5C33.4583 354.417 31.5833 357.125 29.75 359.625C34.25 359.167 38.5833 358.021 42.75 356.188C46.9167 354.354 50.8125 352.083 54.4375 349.375C58.1042 346.625 61.4375 343.562 64.4375 340.188C67.4792 336.771 70.0625 333.25 72.1875 329.625C74.3542 325.958 76.0208 322.292 77.1875 318.625C78.3958 314.958 79 311.5 79 308.25C79 305.5 78.6458 302.958 77.9375 300.625C77.2708 298.292 76.2292 296.271 74.8125 294.562C73.4375 292.854 71.6667 291.521 69.5 290.562C67.3333 289.604 64.7917 289.125 61.875 289.125C59.1667 289.125 56.4375 289.396 53.6875 289.938C50.9792 290.438 48.375 291.125 45.875 292C43.375 292.875 41.0625 293.917 38.9375 295.125C36.8542 296.292 35.0625 297.562 33.5625 298.938C31.8958 300.771 30.4167 302.604 29.125 304.438C27.875 306.271 26.625 307.917 25.375 309.375C24.1667 310.833 22.8542 312.021 21.4375 312.938C20.0208 313.854 18.3542 314.312 16.4375 314.312C12.8542 314.312 11.0625 312.729 11.0625 309.562C11.0625 307.562 11.7083 305.417 13 303.125C14.2917 300.792 16.0833 298.5 18.375 296.25C20.7083 293.958 23.4583 291.771 26.625 289.688C29.8333 287.562 33.3542 285.708 37.1875 284.125C41.0208 282.5 45.1042 281.208 49.4375 280.25C53.7708 279.292 58.2292 278.812 62.8125 278.812C68.1458 278.812 72.7917 279.604 76.75 281.188C80.7083 282.771 83.9792 284.958 86.5625 287.75C89.1875 290.5 91.125 293.75 92.375 297.5C93.6667 301.25 94.3125 305.292 94.3125 309.625C94.3125 313.958 93.5625 318.5 92.0625 323.25C90.6042 328 88.4375 332.667 85.5625 337.25C82.7292 341.833 79.2083 346.188 75 350.312C70.8333 354.438 66.0208 358.062 60.5625 361.188C55.1458 364.312 49.125 366.792 42.5 368.625C35.9167 370.458 28.7917 371.375 21.125 371.375C19.4583 371.375 18.1458 370.833 17.1875 369.75C16.2292 368.708 15.75 367.417 15.75 365.875C15.75 364.667 15.9583 363.5 16.375 362.375C16.7917 361.25 17.3333 360.208 18 359.25L43.6875 308.188C44.8958 306.312 46.0833 304.812 47.25 303.688C48.4583 302.562 49.5625 301.688 50.5625 301.062C51.6042 300.438 52.5208 300.042 53.3125 299.875C54.1042 299.667 54.7083 299.562 55.125 299.562C57 299.562 58.3333 300.104 59.125 301.188C59.9167 302.271 60.3125 303.562 60.3125 305.062C60.3125 306.271 60.1042 307.542 59.6875 308.875C59.2708 310.208 58.7083 311.479 58 312.688ZM118.625 334.875C116.667 334.875 114.771 335.375 112.938 336.375C111.104 337.375 109.479 338.688 108.062 340.312C106.646 341.938 105.521 343.771 104.688 345.812C103.854 347.812 103.438 349.833 103.438 351.875C103.438 352.708 103.479 353.583 103.562 354.5C103.688 355.375 103.938 356.188 104.312 356.938C104.688 357.688 105.208 358.312 105.875 358.812C106.583 359.312 107.521 359.562 108.688 359.562C109.604 359.562 110.667 359.167 111.875 358.375C113.125 357.542 114.396 356.5 115.688 355.25C117.021 353.958 118.312 352.562 119.562 351.062C120.812 349.521 121.938 348.021 122.938 346.562C123.938 345.104 124.75 343.792 125.375 342.625C126 341.458 126.312 340.604 126.312 340.062C126.312 339.271 126.042 338.562 125.5 337.938C124.958 337.271 124.292 336.708 123.5 336.25C122.708 335.792 121.854 335.458 120.938 335.25C120.062 335 119.292 334.875 118.625 334.875ZM161.938 351C161.188 351.708 160.188 352.688 158.938 353.938C157.688 355.188 156.25 356.542 154.625 358C153.042 359.458 151.333 360.938 149.5 362.438C147.708 363.896 145.854 365.229 143.938 366.438C142.062 367.646 140.208 368.625 138.375 369.375C136.542 370.167 134.812 370.562 133.188 370.562C131.729 370.562 130.479 370.25 129.438 369.625C128.396 369 127.521 368.188 126.812 367.188C126.146 366.188 125.646 365.062 125.312 363.812C124.979 362.521 124.812 361.208 124.812 359.875C124.812 359 124.875 358.146 125 357.312C125.125 356.438 125.333 355.625 125.625 354.875C124.333 356.625 122.854 358.438 121.188 360.312C119.562 362.146 117.792 363.833 115.875 365.375C114 366.875 112.021 368.104 109.938 369.062C107.896 370.062 105.812 370.562 103.688 370.562C102.604 370.562 101.333 370.333 99.875 369.875C98.4583 369.458 97.1042 368.75 95.8125 367.75C94.5208 366.75 93.4375 365.458 92.5625 363.875C91.6875 362.292 91.25 360.354 91.25 358.062C91.25 356.354 91.5 354.312 92 351.938C92.5417 349.562 93.3333 347.104 94.375 344.562C95.4583 341.979 96.8125 339.438 98.4375 336.938C100.104 334.438 102.062 332.208 104.312 330.25C106.562 328.25 109.125 326.646 112 325.438C114.875 324.188 118.083 323.562 121.625 323.562C123.458 323.562 125.062 323.792 126.438 324.25C127.812 324.708 128.979 325.208 129.938 325.75C131.021 326.417 131.979 327.146 132.812 327.938C133.521 327.562 134.25 327.208 135 326.875C135.625 326.583 136.271 326.333 136.938 326.125C137.646 325.875 138.25 325.75 138.75 325.75C140.333 325.75 141.625 326.188 142.625 327.062C143.625 327.938 144.125 328.896 144.125 329.938C144.125 330.229 144.104 330.458 144.062 330.625C143.854 331.417 143.521 332.417 143.062 333.625C142.646 334.833 142.167 336.188 141.625 337.688C141.083 339.146 140.521 340.688 139.938 342.312C139.396 343.896 138.896 345.458 138.438 347C137.979 348.542 137.604 350 137.312 351.375C137.021 352.708 136.875 353.854 136.875 354.812C136.875 356.062 137.083 357.104 137.5 357.938C137.917 358.729 138.625 359.125 139.625 359.125C140.25 359.125 140.979 358.938 141.812 358.562C142.688 358.146 143.625 357.604 144.625 356.938C145.625 356.271 146.646 355.521 147.688 354.688C148.771 353.812 149.812 352.938 150.812 352.062C153.146 349.979 155.625 347.604 158.25 344.938C158.917 344.396 159.562 344.125 160.188 344.125C161.021 344.125 161.708 344.542 162.25 345.375C162.833 346.167 163.125 347.062 163.125 348.062C163.125 349.229 162.729 350.208 161.938 351ZM174.062 334.25C172.521 337.25 171.062 340.188 169.688 343.062C168.312 345.896 167.021 348.521 165.812 350.938C165.312 351.938 164.812 353.104 164.312 354.438C163.854 355.729 163.625 356.875 163.625 357.875C163.625 358.458 163.75 358.917 164 359.25C164.292 359.583 164.75 359.75 165.375 359.75C166.25 359.75 167.354 359.5 168.688 359C170.021 358.458 171.458 357.771 173 356.938C174.542 356.062 176.167 355.083 177.875 354C179.583 352.875 181.25 351.729 182.875 350.562C184.542 349.354 186.125 348.167 187.625 347C189.125 345.792 190.458 344.688 191.625 343.688C192.292 343.229 192.917 343 193.5 343C194.208 343 194.792 343.312 195.25 343.938C195.708 344.562 195.938 345.354 195.938 346.312C195.938 347.271 195.708 348.25 195.25 349.25C194.792 350.25 193.958 351.229 192.75 352.188C190.042 354.646 187.292 356.979 184.5 359.188C181.75 361.396 179 363.354 176.25 365.062C173.542 366.729 170.854 368.062 168.188 369.062C165.521 370.062 162.938 370.562 160.438 370.562C158.771 370.562 157.375 370.333 156.25 369.875C155.125 369.458 154.208 368.875 153.5 368.125C152.833 367.333 152.354 366.438 152.062 365.438C151.771 364.396 151.625 363.292 151.625 362.125C151.625 360.042 151.979 357.875 152.688 355.625C153.396 353.375 154.188 351.354 155.062 349.562C156.312 346.979 157.542 344.417 158.75 341.875C160 339.333 161.208 336.896 162.375 334.562H159.688C157.354 334.562 155.75 334.188 154.875 333.438C154 332.688 153.562 331.833 153.562 330.875C153.562 330.458 153.688 329.958 153.938 329.375C154.229 328.75 154.625 328.188 155.125 327.688C155.667 327.146 156.312 326.688 157.062 326.312C157.812 325.938 158.667 325.75 159.625 325.75H166.375L179.562 299.562C180.396 297.979 181.417 296.854 182.625 296.188C183.875 295.479 185.167 295.125 186.5 295.125C187.75 295.125 188.896 295.458 189.938 296.125C190.979 296.792 191.5 297.896 191.5 299.438C191.5 300.229 191.312 301.042 190.938 301.875C190.604 302.667 190.146 303.604 189.562 304.688C189.188 305.396 188.729 306.25 188.188 307.25C187.646 308.208 187.062 309.25 186.438 310.375C185.854 311.458 185.229 312.604 184.562 313.812C183.938 315.021 183.312 316.188 182.688 317.312C181.271 319.979 179.771 322.792 178.188 325.75H198.562C199.562 325.75 200.479 325.812 201.312 325.938C202.146 326.021 202.854 326.229 203.438 326.562C204.062 326.854 204.542 327.271 204.875 327.812C205.208 328.354 205.375 329.083 205.375 330C205.375 330.458 205.292 330.917 205.125 331.375C205 331.833 204.729 332.25 204.312 332.625C203.938 333 203.396 333.312 202.688 333.562C202.021 333.812 201.146 333.979 200.062 334.062L174.062 334.25ZM212.375 334.562C210.417 334.562 208.521 335.062 206.688 336.062C204.896 337.021 203.292 338.312 201.875 339.938C200.5 341.521 199.396 343.333 198.562 345.375C197.729 347.375 197.312 349.438 197.312 351.562C197.312 352.354 197.375 353.229 197.5 354.188C197.625 355.104 197.875 355.979 198.25 356.812C198.667 357.604 199.25 358.271 200 358.812C200.75 359.354 201.75 359.625 203 359.625C204.917 359.625 206.771 359.125 208.562 358.125C210.396 357.083 212.021 355.75 213.438 354.125C214.854 352.458 215.979 350.583 216.812 348.5C217.646 346.417 218.062 344.312 218.062 342.188C218.062 341.354 218 340.5 217.875 339.625C217.792 338.708 217.542 337.875 217.125 337.125C216.75 336.375 216.188 335.771 215.438 335.312C214.688 334.812 213.667 334.562 212.375 334.562ZM215.625 323.562C217.208 323.562 218.896 323.771 220.688 324.188C222.521 324.604 224.208 325.312 225.75 326.312C227.292 327.312 228.562 328.646 229.562 330.312C230.604 331.938 231.125 333.958 231.125 336.375C231.125 337.625 230.958 339.062 230.625 340.688C230.292 342.271 229.792 343.938 229.125 345.688C229.542 346.188 230.021 346.542 230.562 346.75C231.104 346.958 231.688 347.062 232.312 347.062C233.188 347.062 234.146 346.812 235.188 346.312C236.271 345.812 237.375 345.167 238.5 344.375C239.625 343.583 240.75 342.688 241.875 341.688C243 340.688 244.062 339.688 245.062 338.688C246.062 337.688 246.958 336.75 247.75 335.875C248.583 334.958 249.271 334.188 249.812 333.562C250.104 333.271 250.458 333.125 250.875 333.125C251.458 333.125 251.979 333.438 252.438 334.062C252.896 334.646 253.125 335.479 253.125 336.562C253.125 337.646 252.792 338.896 252.125 340.312C251.5 341.729 250.312 343.208 248.562 344.75C247.562 345.833 246.417 347.083 245.125 348.5C243.833 349.917 242.458 351.25 241 352.5C239.542 353.75 238.021 354.812 236.438 355.688C234.854 356.562 233.271 357 231.688 357C230.604 357 229.542 356.833 228.5 356.5C227.5 356.167 226.479 355.625 225.438 354.875C223.938 357.208 222.229 359.333 220.312 361.25C218.396 363.167 216.25 364.812 213.875 366.188C211.542 367.562 209 368.625 206.25 369.375C203.542 370.167 200.646 370.562 197.562 370.562C196.396 370.562 195.042 370.333 193.5 369.875C191.958 369.417 190.479 368.667 189.062 367.625C187.688 366.542 186.521 365.146 185.562 363.438C184.604 361.729 184.125 359.646 184.125 357.188C184.125 355.521 184.396 353.521 184.938 351.188C185.479 348.854 186.292 346.458 187.375 344C188.5 341.5 189.896 339.042 191.562 336.625C193.271 334.167 195.292 331.979 197.625 330.062C199.958 328.104 202.625 326.542 205.625 325.375C208.625 324.167 211.958 323.562 215.625 323.562ZM259.375 333.812C261.917 335.146 264.188 336.667 266.188 338.375C268.188 340.083 269.875 341.896 271.25 343.812C272.667 345.688 273.729 347.604 274.438 349.562C275.188 351.521 275.562 353.438 275.562 355.312C275.562 357.688 274.875 359.833 273.5 361.75C272.167 363.625 270.396 365.229 268.188 366.562C266.021 367.854 263.521 368.833 260.688 369.5C257.896 370.208 255.062 370.562 252.188 370.562C250.021 370.562 247.917 370.312 245.875 369.812C243.833 369.354 241.958 368.625 240.25 367.625C238.583 366.625 237.146 365.354 235.938 363.812C234.729 362.229 233.875 360.354 233.375 358.188C233.292 357.854 233.25 357.583 233.25 357.375C233.25 356.25 233.646 355.292 234.438 354.5C235.229 353.667 236.104 353.25 237.062 353.25C237.521 353.25 238.021 353.333 238.562 353.5C239.146 353.667 239.583 354.042 239.875 354.625C240.417 355.625 241.167 356.521 242.125 357.312C243.125 358.104 244.229 358.792 245.438 359.375C246.646 359.917 247.917 360.354 249.25 360.688C250.625 360.979 251.958 361.125 253.25 361.125C254.583 361.125 255.854 361 257.062 360.75C258.312 360.5 259.396 360.104 260.312 359.562C261.271 359.021 262.021 358.333 262.562 357.5C263.104 356.667 263.375 355.646 263.375 354.438C263.375 352.312 262.896 350.354 261.938 348.562C260.979 346.771 259.729 345.125 258.188 343.625C256.688 342.083 254.958 340.667 253 339.375C251.083 338.042 249.167 336.771 247.25 335.562C247.042 335.438 246.729 335.083 246.312 334.5C245.896 333.875 245.688 333.25 245.688 332.625C245.688 332.125 245.812 331.729 246.062 331.438C246.729 330.562 247.5 329.667 248.375 328.75C249.25 327.833 250.188 327 251.188 326.25C252.188 325.458 253.271 324.833 254.438 324.375C255.604 323.875 256.812 323.625 258.062 323.625C258.979 323.625 259.833 323.75 260.625 324C261.417 324.25 262.083 324.583 262.625 325C263.167 325.375 263.583 325.812 263.875 326.312C264.208 326.771 264.375 327.208 264.375 327.625C264.375 328.208 264.229 328.771 263.938 329.312C263.646 329.854 263.25 330.375 262.75 330.875C262.292 331.375 261.75 331.875 261.125 332.375C260.542 332.875 259.958 333.354 259.375 333.812Z" fill="white"/>
<defs>
<clipPath id="clip0_103_3">
<rect width="184.917" height="194.797" fill="white" transform="translate(238.417) rotate(15)"/>
</clipPath>
</defs>
</svg>
